<svg width="134" height="134" xmlns="http://www.w3.org/2000/svg" version="1.1" preserveAspectRatio="none">

 <!---->
 <g>
  <title>background</title>
  <rect fill="none" id="canvas_background" height="136" width="136" y="-1" x="-1"/>
 </g>
 <g>
  <title>Layer 1</title>
  <g transform="translate(370.6180419921875,202.60948181152344) scale(1) " id="shape_BSu5zwqvYB">
   <g id="svg_7">
    <rect id="svg_8" y="-212.07692" x="-380.14595" height="153" width="153" fill="rgba(0,0,0,0)"/>
    <svg data-parent="shape_BSu5zwqvYB" preserveAspectRatio="none" height="133" width="133" xml:space="preserve" viewBox="0 0 283.465 283.465" y="-202.07692" x="-370.14595" id="svg_1" version="1.1" xmlns:xlink="http://www.w3.org/1999/xlink" xmlns="http://www.w3.org/2000/svg">
     <circle id="svg_9" stroke-miterlimit="10" stroke-width="3.5" stroke="#ffffff" fill="none" r="138.75" cy="141.732" cx="141.732"/>
    </svg>
   </g>
   <!---->
  </g>
  <g transform="translate(370.6180419921875,281.25543212890625) scale(1) " id="shape_G5fkgALpPY">
   <g id="svg_10">
    <rect id="svg_11" y="-212.07692" x="-380.14595" height="44.50813" width="43.35528" fill="rgba(0,0,0,0)"/>
    <svg data-parent="shape_G5fkgALpPY" preserveAspectRatio="none" height="24.50813" width="23.35528" xml:space="preserve" viewBox="0 0 270.131 283.465" y="-202.07692" x="-370.14595" id="svg_3" version="1.1" xmlns:xlink="http://www.w3.org/1999/xlink" xmlns="http://www.w3.org/2000/svg">
     <path id="svg_12" fill="#C81D1D" d="m265.134,165.529c2.58,-10.63 4.424,-21.364 2.287,-32.414c-1.387,-7.164 -2.754,-14.398 -3.197,-21.657c-0.424,-6.947 -0.59,-13.573 -7.14,-17.945c-0.75,-0.505 -1.207,-1.538 -1.646,-2.405c-4.447,-8.862 -11.408,-15.724 -17.945,-22.958c-2.202,-2.438 -3.617,-5.588 -5.358,-8.432c-3.443,-5.636 -3.58,-13.125 -10.295,-17.054c-1.731,-1.014 -2.004,-4.508 -2.995,-6.98c2.509,-0.953 4.169,-1.589 5.891,-2.245c-0.349,-1.189 -0.382,-1.995 -0.774,-2.542c-4.575,-6.357 -11.993,-9.489 -17.167,-15.351c-4.212,-4.773 -10.352,-5.716 -16.724,-2.641c-1.905,-4.334 -5.249,-6.093 -9.362,-6.513c-5.169,-0.533 -10.159,-1.684 -14.898,-3.839c-0.217,-0.099 -0.481,-0.076 -0.726,-0.113c-16.558,-2.589 -33.098,-1.632 -49.553,0.778c-5.48,0.802 -10.823,2.669 -16.162,4.263c-3.212,0.957 -6.23,2.584 -9.461,3.457c-7.904,2.141 -15.653,4.556 -22.308,9.574c-1.561,1.179 -2.938,2.849 -4.692,3.476c-9.786,3.509 -16.757,10.89 -23.869,17.775c-6.466,6.258 -12.267,13.347 -17.506,20.68c-6.235,8.725 -11.927,17.841 -13.158,29.052c-0.924,8.376 -2.844,16.639 -4.093,24.986c-3.349,22.369 -4.613,44.573 4.447,66.182c1.835,4.377 1.358,9.824 3.556,13.917c3.169,5.909 5.815,12.078 10.23,17.535c5.862,7.239 9.89,15.964 14.799,24.213c0.802,-0.212 1.91,-0.514 2.613,-0.703c3.49,4.216 5.772,9.281 9.508,10.824c3.66,1.514 5.032,2.825 4.787,4.976c6.881,5.339 15.04,5.155 21.53,9.612c5.952,4.084 13.531,5.575 18.61,11.064c2,2.165 4.155,3.089 6.966,3.348c3.4,0.321 6.848,0.698 10.135,1.585c2.665,0.717 5.117,2.226 7.999,3.532c1.505,-0.241 3.603,-0.849 5.711,-0.873c11.989,-0.141 24.015,0.42 35.942,-0.448c5.343,-0.387 11.649,-0.849 15.153,-6.805c0.873,-1.481 3.117,-2.155 4.858,-3.287c-2.834,-4.263 0.901,-4.891 3.476,-5.928c10.545,-4.245 19.874,-10.253 27.679,-18.577c1.674,-1.783 3.311,-3.726 5.325,-5.046c8.909,-5.848 15.936,-13.564 22.643,-21.713c1.929,-2.339 5.074,-3.632 7.419,-5.688c2.886,-2.528 5.843,-5.098 8.164,-8.121c2.193,-2.853 3.598,-6.315 5.348,-9.513c-1.66,-3.179 -3.014,-6.546 -2.353,-9.456c1.642,-7.296 4.538,-14.304 6.306,-21.582zm-25.854,-60.753c0.113,-0.802 0.226,-1.599 0.344,-2.401c0.161,-1.099 0.623,-2.212 1.188,-3.198c0.698,1.981 1.311,4.013 2.042,6.249c-1.857,0.373 -2.895,0.005 -3.574,-0.65z"/>
    </svg>
   </g>
   <!---->
  </g>
  <g style="cursor: move; opacity: 1;" transform="translate(426.1700134277344,238.54249572753906) scale(1) " id="shape_yXfmVhFFMX">
   <svg y="-202.07692" x="-370.14595" id="svg_13" data-parent="shape_yXfmVhFFMX" preserveAspectRatio="none" viewBox="0 0 66.94800000000001 68.701" height="61.134" width="71.948" style="top:0; left: 0" overflow="hidden" version="1.1" xmlns:xlink="http://www.w3.org/1999/xlink" xmlns="http://www.w3.org/2000/svg">
    <rect id="svg_14" height="61.134" width="71.948" fill="rgba(0,0,0,0)"/>
    <rect id="svg_15" opacity="0"/>
    <g id="svg_16" data-width="61.948">
     <path id="svg_17" data-glyph-w="27.14" d="m28.41,36.018l0,0l-19.64,0l0,-27.88l-0.92,0l0,-3.63l4.51,0l0,27.92l16.05,0l0,3.59z" fill="#ffffff"/>
     <path id="svg_18" data-glyph-w="29.808" d="m48.61,22.128l0,13.48l-3.64,0l0,-13.48l0.05,0l-9.89,-14.35l-1.24,0l0,-3.59l3.13,0l9.75,14.21l9.8,-14.21l3.17,0l0,3.59l-1.29,0l-9.84,14.35z" fill="#ffffff"/>
    </g>
   </svg>
   <!---->
  </g>
  <g transform="translate(399.0000305175781,276.1094970703125) scale(1) " id="shape_Ljekov8eBP">
   <svg y="-202.07692" x="-370.14595" id="svg_19" data-parent="shape_Ljekov8eBP" preserveAspectRatio="none" viewBox="0 0 35.172000000000004 37.7" height="34.8" width="40.172" overflow="hidden" version="1.1" xmlns:xlink="http://www.w3.org/1999/xlink" xmlns="http://www.w3.org/2000/svg">
    <rect id="svg_20" height="34.8" width="40.172" fill="rgba(0,0,0,0)"/>
    <rect id="svg_21" opacity="0"/>
    <g id="svg_22" data-width="30.172">
     <path id="svg_23" data-glyph-w="12.383" d="m17.15,12.47q0,0.14 -0.1,0.25q-0.1,0.1 -0.25,0.1l0,0l-5.83,0q-0.14,0 -0.14,0.14l0,0l0,3.66q0,0.14 0.14,0.14l0,0l3.19,0q0.15,0 0.25,0.1q0.1,0.1 0.1,0.25l0,0l0,3.45q0,0.15 -0.1,0.25q-0.1,0.1 -0.25,0.1l0,0l-3.19,0q-0.14,0 -0.14,0.14l0,0l0,7.6q0,0.15 -0.1,0.25q-0.1,0.1 -0.25,0.1l0,0l-4.12,0q-0.14,0 -0.24,-0.1q-0.1,-0.1 -0.1,-0.25l0,0l0,-19.6q0,-0.15 0.1,-0.25q0.1,-0.1 0.24,-0.1l0,0l10.44,0q0.15,0 0.25,0.1q0.1,0.1 0.1,0.25l0,0l0,3.42z" fill="#ffffff"/>
     <path id="svg_24" data-glyph-w="12.789" d="m29.533,12.47q0,0.14 -0.1,0.25q-0.1,0.1 -0.25,0.1l0,0l-5.83,0q-0.14,0 -0.14,0.14l0,0l0,3.66q0,0.14 0.14,0.14l0,0l3.19,0q0.15,0 0.25,0.1q0.1,0.1 0.1,0.25l0,0l0,3.45q0,0.15 -0.1,0.25q-0.1,0.1 -0.25,0.1l0,0l-3.19,0q-0.14,0 -0.14,0.14l0,0l0,3.69q0,0.14 0.14,0.14l0,0l5.83,0q0.15,0 0.25,0.1q0.1,0.1 0.1,0.25l0,0l0,3.42q0,0.15 -0.1,0.25q-0.1,0.1 -0.25,0.1l0,0l-10.44,0q-0.14,0 -0.24,-0.1q-0.1,-0.1 -0.1,-0.25l0,0l0,-19.6q0,-0.15 0.1,-0.25q0.1,-0.1 0.24,-0.1l0,0l10.44,0q0.15,0 0.25,0.1q0.1,0.1 0.1,0.25l0,0l0,3.42z" fill="#ffffff"/>
    </g>
   </svg>
   <!---->
  </g>
 </g>
</svg>