<svg width="172" height="104" xmlns="http://www.w3.org/2000/svg" style="background: rgb(255, 255, 255);" version="1.1" preserveAspectRatio="none">

 <!---->
 <g>
  <title>background</title>
  <rect fill="none" id="canvas_background" height="106" width="174" y="-1" x="-1"/>
 </g>
 <g>
  <title>Layer 1</title>
  <g transform="translate(409.460693359375,238.07473754882812) scale(1) " id="shape_zBYQ5nz7zN">
   <g id="svg_5">
    <rect id="svg_6" y="-247.86146" x="-366.41153" height="123.95481" width="58.87326" fill="rgba(0,0,0,0)"/>
    <svg data-parent="shape_zBYQ5nz7zN" preserveAspectRatio="none" height="103.95481" width="38.87326" xml:space="preserve" viewBox="84.5 226.549 106 283.465" y="-237.86146" x="-356.41153" id="svg_1" version="1.1" xmlns:xlink="http://www.w3.org/1999/xlink" xmlns="http://www.w3.org/2000/svg">
     <g id="svg_7">
      <polygon id="svg_8" fill="#EF5252" points="149.745,236.829 99.917,345.713 142.978,328.078 99.917,427.324 138.467,409.689    99.917,507.705 175.787,370.729 145.029,382.212 183.579,291.63 138.057,312.545  "/>
      <path id="svg_9" fill="#FF0C00" d="m99.797,508.017l36.41,-95.942l-38.695,17.703l43.133,-99.416l-43.143,17.669l54.809,-119.769l-12.69,82.208l46.336,-21.288l-38.676,90.873l31.193,-11.642l-78.677,139.604zm40.932,-100.714l-32.808,83.41l65.176,-117.666l-30.323,11.32l38.426,-90.292l-44.707,20.543l10.686,-69.222l-44.847,97.998l42.98,-17.602l-42.989,99.079l38.406,-17.568z"/>
     </g>
    </svg>
   </g>
   <!---->
  </g>
  <g transform="translate(349.1166687011719,255.25213623046875) scale(1) " id="shape_AOvGsMAYTY">
   <svg y="-237.86146" x="-356.41153" id="svg_10" data-parent="shape_AOvGsMAYTY" preserveAspectRatio="none" viewBox="0 0 60.34400000000001 75.4" height="69.6" width="65.344" overflow="hidden" version="1.1" xmlns:xlink="http://www.w3.org/1999/xlink" xmlns="http://www.w3.org/2000/svg">
    <rect id="svg_11" height="69.6" width="65.344" fill="rgba(0,0,0,0)"/>
    <rect id="svg_12" opacity="0"/>
    <g id="svg_13" data-width="55.344">
     <path id="svg_14" data-glyph-w="24.766" d="m29.3,24.94q0,0.29 -0.2,0.49q-0.2,0.21 -0.49,0.21l0,0l-11.66,0q-0.29,0 -0.29,0.29l0,0l0,7.3q0,0.29 0.29,0.29l0,0l6.38,0q0.29,0 0.49,0.21q0.2,0.2 0.2,0.49l0,0l0,6.9q0,0.29 -0.2,0.49q-0.2,0.21 -0.49,0.21l0,0l-6.38,0q-0.29,0 -0.29,0.29l0,0l0,15.19q0,0.29 -0.2,0.5q-0.21,0.2 -0.5,0.2l0,0l-8.23,0q-0.29,0 -0.5,-0.2q-0.2,-0.21 -0.2,-0.5l0,0l0,-39.2q0,-0.29 0.2,-0.5q0.21,-0.2 0.5,-0.2l0,0l20.88,0q0.29,0 0.49,0.2q0.2,0.21 0.2,0.5l0,0l0,6.84z" fill="#191919"/>
     <path id="svg_15" data-glyph-w="25.578" d="m54.066,24.94q0,0.29 -0.2,0.49q-0.2,0.21 -0.49,0.21l0,0l-11.66,0q-0.29,0 -0.29,0.29l0,0l0,7.3q0,0.29 0.29,0.29l0,0l6.38,0q0.29,0 0.49,0.21q0.2,0.2 0.2,0.49l0,0l0,6.9q0,0.29 -0.2,0.49q-0.2,0.21 -0.49,0.21l0,0l-6.38,0q-0.29,0 -0.29,0.29l0,0l0,7.36q0,0.29 0.29,0.29l0,0l11.66,0q0.29,0 0.49,0.21q0.2,0.2 0.2,0.49l0,0l0,6.84q0,0.29 -0.2,0.5q-0.2,0.2 -0.49,0.2l0,0l-20.88,0q-0.29,0 -0.5,-0.2q-0.2,-0.21 -0.2,-0.5l0,0l0,-39.2q0,-0.29 0.2,-0.5q0.21,-0.2 0.5,-0.2l0,0l20.88,0q0.29,0 0.49,0.2q0.2,0.21 0.2,0.5l0,0l0,6.84z" fill="#191919"/>
    </g>
   </svg>
   <!---->
  </g>
  <g transform="translate(449.80877685546875,264.27813720703125) scale(1) " id="shape_S3u7mVzcKf">
   <svg y="-237.86146" x="-356.41153" id="svg_16" data-parent="shape_S3u7mVzcKf" preserveAspectRatio="none" viewBox="0 0 78.73 70.267" height="66.178" width="83.73" overflow="hidden" version="1.1" xmlns:xlink="http://www.w3.org/1999/xlink" xmlns="http://www.w3.org/2000/svg">
    <rect id="svg_17" height="66.178" width="83.73" fill="rgba(0,0,0,0)"/>
    <rect id="svg_18" opacity="0"/>
    <g id="svg_19" data-width="73.73">
     <path id="svg_20" data-glyph-w="30.856" d="m8.48,32.882l0,-21.75l8.18,0l0,21.75q0.17,4.12 0.35,5.46l0,0q0.4,2.66 2.55,3.62q2.14,0.96 7.54,0.96l0,0l7.89,0l0,6.9l-8.76,0q-6.21,0 -8.99,-0.7l0,0q-6.38,-1.85 -8.12,-8.12l0,0q-0.64,-2.43 -0.64,-8.12l0,0z" fill="#191919"/>
     <path id="svg_21" data-glyph-w="37.874" d="m50.296,49.822l0,-16.94l-14.32,-21.75l9.62,0l8.88,15.14l9.34,-15.14l9.8,0l-15.08,22.04l0,16.65l-8.24,0z" fill="#191919"/>
    </g>
   </svg>
   <!---->
  </g>
 </g>
</svg>